<mxfile host="Electron" modified="2024-04-30T07:37:50.284Z" agent="Mozilla/5.0 (Windows NT 10.0; Win64; x64) AppleWebKit/537.36 (KHTML, like Gecko) draw.io/22.1.21 Chrome/120.0.6099.109 Electron/28.1.0 Safari/537.36" etag="Rki904vHidDcc3smKyh8" version="22.1.21" type="device">
  <diagram name="Page-1" id="rxdMIFF4QSZ6s4MxIWWF">
    <mxGraphModel dx="1900" dy="1287" grid="0" gridSize="10" guides="1" tooltips="1" connect="1" arrows="1" fold="1" page="0" pageScale="1" pageWidth="850" pageHeight="1100" math="0" shadow="0">
      <root>
        <mxCell id="0" />
        <mxCell id="1" parent="0" />
        <mxCell id="HV24brgej4YQnU932i5W-1" value="&lt;font style=&quot;font-size: 14px;&quot;&gt;&lt;font style=&quot;font-size: 14px;&quot;&gt;Time&amp;nbsp;&lt;/font&gt;&lt;font style=&quot;font-size: 14px;&quot;&gt;Dimension&amp;nbsp;&lt;/font&gt;&lt;/font&gt;" style="swimlane;whiteSpace=wrap;html=1;fontSize=14;fontColor=#141414;" parent="1" vertex="1">
          <mxGeometry x="541" y="-56" width="200" height="166" as="geometry" />
        </mxCell>
        <mxCell id="HV24brgej4YQnU932i5W-2" value="&lt;div style=&quot;text-align: left; font-size: 14px;&quot;&gt;&lt;font style=&quot;font-size: 14px;&quot;&gt;&lt;br style=&quot;font-size: 14px;&quot;&gt;&lt;/font&gt;&lt;/div&gt;&lt;font style=&quot;font-size: 14px;&quot;&gt;&lt;div style=&quot;text-align: left; font-size: 14px;&quot;&gt;&lt;font style=&quot;font-size: 14px;&quot;&gt;&lt;br style=&quot;font-size: 14px;&quot;&gt;&lt;/font&gt;&lt;/div&gt;&lt;font style=&quot;font-size: 14px;&quot;&gt;&lt;div style=&quot;text-align: left; font-size: 14px;&quot;&gt;&lt;span style=&quot;background-color: initial; font-size: 14px;&quot;&gt;&lt;font style=&quot;font-size: 14px;&quot;&gt;Time (PK)&lt;/font&gt;&lt;/span&gt;&lt;/div&gt;&lt;div style=&quot;text-align: left; font-size: 14px;&quot;&gt;&lt;span style=&quot;background-color: initial; font-size: 14px;&quot;&gt;&lt;font style=&quot;font-size: 14px;&quot;&gt;Time Id&lt;/font&gt;&lt;/span&gt;&lt;/div&gt;&lt;div style=&quot;text-align: left; font-size: 14px;&quot;&gt;&lt;span style=&quot;background-color: initial; font-size: 14px;&quot;&gt;&lt;font style=&quot;font-size: 14px;&quot;&gt;Hour&lt;/font&gt;&lt;/span&gt;&lt;/div&gt;&lt;div style=&quot;text-align: left; font-size: 14px;&quot;&gt;&lt;span style=&quot;background-color: initial; font-size: 14px;&quot;&gt;&lt;font style=&quot;font-size: 14px;&quot;&gt;Minute&lt;/font&gt;&lt;/span&gt;&lt;/div&gt;&lt;div style=&quot;text-align: left; font-size: 14px;&quot;&gt;&lt;font style=&quot;font-size: 14px;&quot;&gt;DaytimeName&lt;/font&gt;&lt;/div&gt;&lt;div style=&quot;text-align: left; font-size: 14px;&quot;&gt;&lt;font style=&quot;font-size: 14px;&quot;&gt;&lt;span style=&quot;background-color: initial; font-size: 14px;&quot;&gt;Shifts&lt;/span&gt;&lt;br style=&quot;font-size: 14px;&quot;&gt;&lt;/font&gt;&lt;/div&gt;&lt;div style=&quot;text-align: left; font-size: 14px;&quot;&gt;&lt;div style=&quot;font-size: 14px;&quot;&gt;&lt;font style=&quot;font-size: 14px;&quot;&gt;DayNight&lt;/font&gt;&lt;/div&gt;&lt;div style=&quot;font-size: 14px;&quot;&gt;&lt;br style=&quot;font-size: 14px;&quot;&gt;&lt;/div&gt;&lt;/div&gt;&lt;/font&gt;&lt;/font&gt;" style="text;html=1;align=center;verticalAlign=middle;resizable=0;points=[];autosize=1;strokeColor=none;fillColor=none;fontSize=14;fontColor=#141414;" parent="HV24brgej4YQnU932i5W-1" vertex="1">
          <mxGeometry x="5" y="-14" width="107" height="180" as="geometry" />
        </mxCell>
        <mxCell id="HV24brgej4YQnU932i5W-3" value="&lt;font style=&quot;font-size: 14px;&quot;&gt;Aircraft Dimension&amp;nbsp;&lt;/font&gt;" style="swimlane;whiteSpace=wrap;html=1;startSize=23;fontSize=14;fontColor=#141414;" parent="1" vertex="1">
          <mxGeometry x="94" y="571" width="151" height="215" as="geometry" />
        </mxCell>
        <mxCell id="HV24brgej4YQnU932i5W-4" value="&lt;div style=&quot;text-align: left; font-size: 14px;&quot;&gt;&lt;div style=&quot;font-size: 14px;&quot;&gt;&lt;div style=&quot;font-size: 14px;&quot;&gt;Aircraft Key (SK)&lt;/div&gt;&lt;div style=&quot;font-size: 14px;&quot;&gt;Aircraft Id&lt;/div&gt;&lt;div style=&quot;font-size: 14px;&quot;&gt;Aircraft Type&lt;/div&gt;&lt;div style=&quot;font-size: 14px;&quot;&gt;Manufacturer&lt;/div&gt;&lt;div style=&quot;font-size: 14px;&quot;&gt;Model&lt;/div&gt;&lt;div style=&quot;font-size: 14px;&quot;&gt;Capacity&lt;/div&gt;&lt;div style=&quot;font-size: 14px;&quot;&gt;Year of Manufacture&lt;/div&gt;&lt;div style=&quot;font-size: 14px;&quot;&gt;Carrying Weight&lt;/div&gt;&lt;div style=&quot;font-size: 14px;&quot;&gt;Fuel Consumption&lt;/div&gt;&lt;div style=&quot;font-size: 14px;&quot;&gt;&lt;br style=&quot;font-size: 14px;&quot;&gt;&lt;/div&gt;&lt;/div&gt;&lt;/div&gt;" style="text;html=1;align=center;verticalAlign=middle;resizable=0;points=[];autosize=1;fontSize=14;fontColor=#141414;" parent="HV24brgej4YQnU932i5W-3" vertex="1">
          <mxGeometry x="-8" y="17.5" width="144" height="180" as="geometry" />
        </mxCell>
        <mxCell id="HV24brgej4YQnU932i5W-10" value="&lt;font style=&quot;font-size: 14px;&quot;&gt;&lt;font style=&quot;font-size: 14px;&quot;&gt;Airport&amp;nbsp;&lt;/font&gt;Dimension&amp;nbsp;&lt;/font&gt;" style="swimlane;whiteSpace=wrap;html=1;fontSize=14;fontColor=#141414;" parent="1" vertex="1">
          <mxGeometry x="-162" y="214" width="222" height="275" as="geometry" />
        </mxCell>
        <mxCell id="HV24brgej4YQnU932i5W-11" value="&lt;div style=&quot;text-align: left; font-size: 14px;&quot;&gt;&lt;div style=&quot;font-size: 14px;&quot;&gt;Airport Key (SK)&lt;/div&gt;&lt;div style=&quot;font-size: 14px;&quot;&gt;Airport Id&lt;/div&gt;&lt;div style=&quot;font-size: 14px;&quot;&gt;Airport Name&lt;/div&gt;&lt;div style=&quot;font-size: 14px;&quot;&gt;Country&lt;/div&gt;&lt;div style=&quot;font-size: 14px;&quot;&gt;City&lt;/div&gt;&lt;div style=&quot;font-size: 14px;&quot;&gt;Latitude&lt;/div&gt;&lt;div style=&quot;font-size: 14px;&quot;&gt;Longitude&lt;/div&gt;&lt;div style=&quot;font-size: 14px;&quot;&gt;Region&lt;/div&gt;&lt;div style=&quot;font-size: 14px;&quot;&gt;&lt;div style=&quot;font-size: 14px;&quot;&gt;Number of runways&lt;/div&gt;&lt;div style=&quot;font-size: 14px;&quot;&gt;&lt;span style=&quot;font-size: 14px;&quot;&gt;Terminal count&lt;/span&gt;&lt;/div&gt;&lt;div style=&quot;font-size: 14px;&quot;&gt;&lt;span style=&quot;font-size: 14px;&quot;&gt;Number of gates&lt;/span&gt;&lt;/div&gt;&lt;div style=&quot;font-size: 14px;&quot;&gt;&lt;span style=&quot;font-size: 14px;&quot;&gt;ATC capacity&lt;/span&gt;&lt;/div&gt;&lt;div style=&quot;font-size: 14px;&quot;&gt;&lt;span style=&quot;font-size: 14px;&quot;&gt;Aircraft Parking Stands&lt;/span&gt;&lt;/div&gt;&lt;div style=&quot;font-size: 14px;&quot;&gt;&lt;span style=&quot;font-size: 14px;&quot;&gt;Guest Capacity&lt;/span&gt;&lt;/div&gt;&lt;/div&gt;&lt;div style=&quot;font-size: 14px;&quot;&gt;&lt;br style=&quot;font-size: 14px;&quot;&gt;&lt;/div&gt;&lt;/div&gt;" style="text;html=1;align=center;verticalAlign=middle;resizable=0;points=[];autosize=1;strokeColor=none;fillColor=none;fontSize=14;fontColor=#141414;" parent="HV24brgej4YQnU932i5W-10" vertex="1">
          <mxGeometry x="3" y="11" width="161" height="264" as="geometry" />
        </mxCell>
        <mxCell id="HV24brgej4YQnU932i5W-12" value="&lt;font style=&quot;font-size: 14px;&quot;&gt;&lt;font style=&quot;font-size: 14px;&quot;&gt;Passenger&amp;nbsp;&lt;/font&gt;Dimension&amp;nbsp;&lt;/font&gt;" style="swimlane;whiteSpace=wrap;html=1;fontSize=14;fontColor=#141414;" parent="1" vertex="1">
          <mxGeometry x="152" y="205" width="146" height="211" as="geometry" />
        </mxCell>
        <mxCell id="HV24brgej4YQnU932i5W-13" value="&lt;div style=&quot;text-align: left; font-size: 14px;&quot;&gt;&lt;div style=&quot;font-size: 14px;&quot;&gt;&lt;font style=&quot;font-size: 14px;&quot; face=&quot;SÃ¶hne, ui-sans-serif, system-ui, -apple-system, Segoe UI, Roboto, Ubuntu, Cantarell, Noto Sans, sans-serif, Helvetica Neue, Arial, Apple Color Emoji, Segoe UI Emoji, Segoe UI Symbol, Noto Color Emoji&quot;&gt;&lt;div style=&quot;font-size: 14px;&quot;&gt;&lt;div style=&quot;font-size: 14px;&quot;&gt;Passenger Key (SK)&lt;/div&gt;&lt;div style=&quot;font-size: 14px;&quot;&gt;&lt;span style=&quot;font-size: 14px;&quot;&gt;Passenger Id&amp;nbsp;&lt;/span&gt;&lt;/div&gt;&lt;div style=&quot;font-size: 14px;&quot;&gt;&lt;span style=&quot;font-size: 14px;&quot;&gt;Passenger Name&lt;/span&gt;&lt;/div&gt;&lt;div style=&quot;font-size: 14px;&quot;&gt;&lt;span style=&quot;font-size: 14px;&quot;&gt;Gender&lt;/span&gt;&lt;/div&gt;&lt;div style=&quot;font-size: 14px;&quot;&gt;&lt;span style=&quot;font-size: 14px;&quot;&gt;Date of Birth&lt;/span&gt;&lt;/div&gt;&lt;div style=&quot;font-size: 14px;&quot;&gt;&lt;span style=&quot;font-size: 14px;&quot;&gt;Nationality&lt;/span&gt;&lt;/div&gt;&lt;div style=&quot;font-size: 14px;&quot;&gt;&lt;span style=&quot;font-size: 14px;&quot;&gt;Email&lt;/span&gt;&lt;/div&gt;&lt;div style=&quot;font-size: 14px;&quot;&gt;&lt;span style=&quot;font-size: 14px;&quot;&gt;Phone&lt;/span&gt;&lt;/div&gt;&lt;div style=&quot;font-size: 14px;&quot;&gt;&lt;span style=&quot;font-size: 14px;&quot;&gt;Passport Number&lt;/span&gt;&lt;/div&gt;&lt;/div&gt;&lt;div style=&quot;font-size: 14px;&quot;&gt;&lt;br style=&quot;font-size: 14px;&quot;&gt;&lt;/div&gt;&lt;/font&gt;&lt;/div&gt;&lt;/div&gt;" style="text;html=1;align=center;verticalAlign=middle;resizable=0;points=[];autosize=1;strokeColor=none;fillColor=none;fontSize=14;fontColor=#141414;" parent="HV24brgej4YQnU932i5W-12" vertex="1">
          <mxGeometry x="5" y="22" width="134" height="180" as="geometry" />
        </mxCell>
        <mxCell id="HV24brgej4YQnU932i5W-14" value="&lt;font style=&quot;font-size: 14px;&quot;&gt;Segment Level Flight Activity Fact&lt;/font&gt;" style="swimlane;whiteSpace=wrap;html=1;fontSize=14;fontColor=#141414;" parent="1" vertex="1">
          <mxGeometry x="459" y="243" width="325" height="710" as="geometry" />
        </mxCell>
        <mxCell id="HV24brgej4YQnU932i5W-15" value="&lt;div style=&quot;text-align: left; font-size: 14px;&quot;&gt;Scheduled Departure Date Key (FK)&lt;br style=&quot;font-size: 14px;&quot;&gt; Scheduled Departure&amp;nbsp;&lt;span style=&quot;background-color: initial; font-size: 14px;&quot;&gt;Time Key (FK)&lt;/span&gt;&lt;/div&gt;&lt;div style=&quot;text-align: left; font-size: 14px;&quot;&gt; Actual Departure Date Key (FK)&lt;br style=&quot;font-size: 14px;&quot;&gt; Actual Departure Time Key (FK)&lt;/div&gt;&lt;div style=&quot;text-align: left; font-size: 14px;&quot;&gt;Passenger Key (FK)&lt;br style=&quot;font-size: 14px;&quot;&gt; Passenger Profile Key (FK)&lt;br style=&quot;font-size: 14px;&quot;&gt; Segment Origin Airport Key (FK)&lt;br style=&quot;font-size: 14px;&quot;&gt; Segment Destination&amp;nbsp;&amp;nbsp;&lt;span style=&quot;background-color: initial; font-size: 14px;&quot;&gt;Airport Key (FK)&lt;/span&gt;&lt;/div&gt;&lt;div style=&quot;text-align: left; font-size: 14px;&quot;&gt; Aircraft Key (FK)&lt;br style=&quot;font-size: 14px;&quot;&gt; Class of Service Flown Key (FK)&lt;br style=&quot;font-size: 14px;&quot;&gt; Fare Basis Key (FK)&lt;/div&gt;&lt;div style=&quot;text-align: left; font-size: 14px;&quot;&gt;City-pair Route Key (FK)&lt;/div&gt;&lt;div style=&quot;text-align: left; font-size: 14px;&quot;&gt;Satisfaction Key (FK)&lt;br style=&quot;font-size: 14px;&quot;&gt; Booking Channel Key (FK)&lt;/div&gt;&lt;div style=&quot;text-align: left; font-size: 14px;&quot;&gt;Confirmation Number (DD)&lt;br style=&quot;font-size: 14px;&quot;&gt; Ticket Number (DD)&lt;br style=&quot;font-size: 14px;&quot;&gt; Segment Sequence Number (DD)&lt;br style=&quot;font-size: 14px;&quot;&gt; Flight Number (DD)&amp;nbsp;&lt;/div&gt;&lt;div style=&quot;text-align: left; font-size: 14px;&quot;&gt;Base Fare Revenue&lt;br style=&quot;font-size: 14px;&quot;&gt; Passenger Facility Charges&amp;nbsp;&lt;/div&gt;&lt;div style=&quot;text-align: left; font-size: 14px;&quot;&gt;Airport Tax&lt;br style=&quot;font-size: 14px;&quot;&gt; Government Tax&lt;br style=&quot;font-size: 14px;&quot;&gt; Baggage Charges&lt;br style=&quot;font-size: 14px;&quot;&gt; Upgrade Fees&amp;nbsp;&lt;/div&gt;&lt;div style=&quot;text-align: left; font-size: 14px;&quot;&gt;&lt;span style=&quot;background-color: initial; font-size: 14px;&quot;&gt;Transaction Fees&lt;/span&gt;&lt;/div&gt;&lt;div style=&quot;text-align: left; font-size: 14px;&quot;&gt; Segment Miles Flown&lt;/div&gt;&lt;div style=&quot;text-align: left; font-size: 14px;&quot;&gt;Segment Miles Earned&lt;br style=&quot;font-size: 14px;&quot;&gt;&lt;/div&gt;" style="text;html=1;align=center;verticalAlign=middle;resizable=0;points=[];autosize=1;strokeColor=none;fillColor=none;fontSize=14;fontColor=#141414;" parent="HV24brgej4YQnU932i5W-14" vertex="1">
          <mxGeometry x="16" y="43" width="256" height="466" as="geometry" />
        </mxCell>
        <mxCell id="HV24brgej4YQnU932i5W-16" value="&lt;font style=&quot;font-size: 14px;&quot;&gt;&lt;font style=&quot;font-size: 14px;&quot;&gt; Class of Service&amp;nbsp;&lt;/font&gt;&lt;font style=&quot;font-size: 14px;&quot;&gt;Dimension&amp;nbsp;&lt;/font&gt;&lt;/font&gt;" style="swimlane;whiteSpace=wrap;html=1;fontSize=14;fontColor=#141414;" parent="1" vertex="1">
          <mxGeometry x="797" y="-75" width="236" height="202" as="geometry" />
        </mxCell>
        <mxCell id="HV24brgej4YQnU932i5W-17" value="&lt;div style=&quot;text-align: left; font-size: 14px;&quot;&gt;&lt;font style=&quot;font-size: 14px;&quot;&gt;Class of Service Key (SK)&lt;br style=&quot;font-size: 14px;&quot;&gt;&lt;/font&gt;&lt;/div&gt;&lt;div style=&quot;text-align: left; font-size: 14px;&quot;&gt;&lt;font style=&quot;font-size: 14px;&quot;&gt;Class Purchased&lt;/font&gt;&lt;/div&gt;&lt;div style=&quot;text-align: left; font-size: 14px;&quot;&gt;&lt;font style=&quot;font-size: 14px;&quot;&gt;Class Flown&lt;/font&gt;&lt;/div&gt;&lt;div style=&quot;text-align: left; font-size: 14px;&quot;&gt;&lt;div style=&quot;font-size: 14px;&quot;&gt;&lt;font style=&quot;font-size: 14px;&quot;&gt;Purchased&amp;nbsp;&lt;span style=&quot;background-color: initial; font-size: 14px;&quot;&gt;Flown Group&lt;/span&gt;&lt;/font&gt;&lt;/div&gt;&lt;div style=&quot;font-size: 14px;&quot;&gt;&lt;span style=&quot;background-color: initial; font-size: 14px;&quot;&gt;&lt;font style=&quot;font-size: 14px;&quot;&gt;Class Change Indicator&amp;nbsp;&lt;/font&gt;&lt;/span&gt;&lt;/div&gt;&lt;div style=&quot;font-size: 14px;&quot;&gt;&lt;font style=&quot;font-size: 14px;&quot;&gt;&lt;br style=&quot;font-size: 14px;&quot;&gt;&lt;/font&gt;&lt;/div&gt;&lt;/div&gt;&lt;div style=&quot;text-align: left; font-size: 14px;&quot;&gt;&lt;br style=&quot;font-size: 14px;&quot;&gt;&lt;/div&gt;" style="text;html=1;align=center;verticalAlign=middle;resizable=0;points=[];autosize=1;strokeColor=none;fillColor=none;fontSize=14;fontColor=#141414;" parent="HV24brgej4YQnU932i5W-16" vertex="1">
          <mxGeometry x="19" y="72" width="179" height="130" as="geometry" />
        </mxCell>
        <mxCell id="HV24brgej4YQnU932i5W-19" value="Passenger Profile Dimension" style="swimlane;whiteSpace=wrap;html=1;fontSize=14;fontColor=#141414;" parent="1" vertex="1">
          <mxGeometry x="85" y="423" width="220" height="110" as="geometry" />
        </mxCell>
        <mxCell id="HV24brgej4YQnU932i5W-20" value="Passenger Profile Key (SK)&lt;br style=&quot;font-size: 14px;&quot;&gt;Frequent Flyer&lt;br style=&quot;font-size: 14px;&quot;&gt;Tier Home Airport&lt;br style=&quot;font-size: 14px;&quot;&gt;Club Membership Status&lt;br style=&quot;font-size: 14px;&quot;&gt;Lifetime Mileage Tier" style="text;html=1;strokeColor=none;fillColor=none;align=left;verticalAlign=middle;whiteSpace=wrap;rounded=0;fontSize=14;fontColor=#141414;" parent="HV24brgej4YQnU932i5W-19" vertex="1">
          <mxGeometry x="4" y="20" width="210" height="87" as="geometry" />
        </mxCell>
        <mxCell id="HV24brgej4YQnU932i5W-21" value="Date Dimension" style="swimlane;whiteSpace=wrap;html=1;fontSize=14;fontColor=#141414;" parent="1" vertex="1">
          <mxGeometry x="828" y="223" width="220" height="404" as="geometry" />
        </mxCell>
        <mxCell id="HV24brgej4YQnU932i5W-22" value="Date Key (PK)&lt;br style=&quot;font-size: 14px;&quot;&gt;Date&lt;br style=&quot;font-size: 14px;&quot;&gt;Day of the Week&lt;br style=&quot;font-size: 14px;&quot;&gt;Day of the Month&lt;br style=&quot;font-size: 14px;&quot;&gt;Day of the Year&lt;br style=&quot;font-size: 14px;&quot;&gt;Week Number&lt;br style=&quot;font-size: 14px;&quot;&gt;Month&lt;br style=&quot;font-size: 14px;&quot;&gt;Quarter&lt;br style=&quot;font-size: 14px;&quot;&gt;Year&lt;br style=&quot;font-size: 14px;&quot;&gt;Holiday Indicator&lt;br style=&quot;font-size: 14px;&quot;&gt;Weekday/Weekend Indicator&lt;br style=&quot;font-size: 14px;&quot;&gt;Season&lt;br style=&quot;font-size: 14px;&quot;&gt;Fiscal Period&lt;br style=&quot;font-size: 14px;&quot;&gt;Fiscal Year&lt;br style=&quot;font-size: 14px;&quot;&gt;Financial Period&lt;br style=&quot;font-size: 14px;&quot;&gt;Financial Year&lt;br style=&quot;font-size: 14px;&quot;&gt;Quarter Start/End Dates&lt;br style=&quot;font-size: 14px;&quot;&gt;Month Start/End Dates&lt;br style=&quot;font-size: 14px;&quot;&gt;Week Start/End Dates&lt;br style=&quot;font-size: 14px;&quot;&gt;Day Type&lt;br style=&quot;font-size: 14px;&quot;&gt;Leap Year Indicator" style="text;html=1;strokeColor=none;fillColor=none;align=left;verticalAlign=middle;whiteSpace=wrap;rounded=0;fontSize=14;fontColor=#141414;" parent="HV24brgej4YQnU932i5W-21" vertex="1">
          <mxGeometry x="10" y="50" width="215" height="320" as="geometry" />
        </mxCell>
        <mxCell id="HV24brgej4YQnU932i5W-23" value="Booking Channel Dimension" style="swimlane;whiteSpace=wrap;html=1;fontSize=14;fontColor=#141414;" parent="1" vertex="1">
          <mxGeometry x="779" y="978" width="235" height="110" as="geometry" />
        </mxCell>
        <mxCell id="HV24brgej4YQnU932i5W-24" value="Booking Channel Key (SK)&lt;br style=&quot;font-size: 14px;&quot;&gt;Booking Channel ID&lt;br style=&quot;font-size: 14px;&quot;&gt;Booking Channel Name&lt;br style=&quot;font-size: 14px;&quot;&gt;Booking Channel Type&lt;br style=&quot;font-size: 14px;&quot;&gt;Online/Offline Indicator" style="text;html=1;strokeColor=none;fillColor=none;align=left;verticalAlign=middle;whiteSpace=wrap;rounded=0;fontSize=14;fontColor=#141414;" parent="HV24brgej4YQnU932i5W-23" vertex="1">
          <mxGeometry x="6" y="26" width="180" height="80" as="geometry" />
        </mxCell>
        <mxCell id="HV24brgej4YQnU932i5W-25" value="Fare Basis Dimension" style="swimlane;whiteSpace=wrap;html=1;fontSize=14;fontColor=#141414;" parent="1" vertex="1">
          <mxGeometry x="866" y="671" width="235" height="236" as="geometry" />
        </mxCell>
        <mxCell id="HV24brgej4YQnU932i5W-26" value="&lt;div style=&quot;font-size: 14px;&quot;&gt;Fare Basis Key (SK)&lt;/div&gt;&lt;div style=&quot;font-size: 14px;&quot;&gt;Fare Basis Code&lt;/div&gt;&lt;div style=&quot;font-size: 14px;&quot;&gt;Fare Type&lt;/div&gt;&lt;div style=&quot;font-size: 14px;&quot;&gt;Description&lt;/div&gt;&lt;div style=&quot;font-size: 14px;&quot;&gt;Advance Purchase Days Requirement&lt;/div&gt;&lt;div style=&quot;font-size: 14px;&quot;&gt;Cancellation Penalty&lt;/div&gt;&lt;div style=&quot;font-size: 14px;&quot;&gt;Discount Percentage&lt;/div&gt;&lt;div style=&quot;font-size: 14px;&quot;&gt;Effective Start Date&lt;/div&gt;&lt;div style=&quot;font-size: 14px;&quot;&gt;Effective End Date&lt;/div&gt;&lt;div style=&quot;font-size: 14px;&quot;&gt;Applicable Travel Class&lt;/div&gt;" style="text;html=1;strokeColor=none;fillColor=none;align=left;verticalAlign=middle;whiteSpace=wrap;rounded=0;fontSize=14;fontColor=#141414;" parent="HV24brgej4YQnU932i5W-25" vertex="1">
          <mxGeometry x="9" y="48" width="230" height="150" as="geometry" />
        </mxCell>
        <mxCell id="Sj8bDxC2IqZtrIGpPQaT-1" value="City-pair Route Dimension" style="swimlane;whiteSpace=wrap;html=1;fontFamily=Helvetica;fontSize=14;fontColor=#141414;" vertex="1" parent="1">
          <mxGeometry x="215" y="-62" width="219" height="159" as="geometry" />
        </mxCell>
        <mxCell id="Sj8bDxC2IqZtrIGpPQaT-2" value="&lt;div style=&quot;border-color: var(--border-color); font-size: 14px; text-align: left;&quot;&gt;City-Pair Route Key (SK)&lt;/div&gt;&lt;div style=&quot;border-color: var(--border-color); font-size: 14px; text-align: left;&quot;&gt;Directional Route Name&lt;/div&gt;&lt;div style=&quot;border-color: var(--border-color); font-size: 14px; text-align: left;&quot;&gt;Non-Directional Route Name&lt;/div&gt;&lt;div style=&quot;border-color: var(--border-color); font-size: 14px; text-align: left;&quot;&gt;Route Distance in Miles&amp;nbsp;&lt;/div&gt;&lt;div style=&quot;border-color: var(--border-color); font-size: 14px; text-align: left;&quot;&gt;Route Distance Band&amp;nbsp;&lt;/div&gt;&lt;div style=&quot;border-color: var(--border-color); font-size: 14px; text-align: left;&quot;&gt;Dom-Intl Indicator&amp;nbsp;&lt;/div&gt;&lt;div style=&quot;border-color: var(--border-color); font-size: 14px; text-align: left;&quot;&gt;Transocean Indicator&lt;/div&gt;" style="text;html=1;strokeColor=none;fillColor=none;align=center;verticalAlign=middle;whiteSpace=wrap;rounded=0;fontSize=14;fontFamily=Helvetica;fontColor=#141414;" vertex="1" parent="Sj8bDxC2IqZtrIGpPQaT-1">
          <mxGeometry x="-4" y="16" width="204" height="151" as="geometry" />
        </mxCell>
        <mxCell id="Sj8bDxC2IqZtrIGpPQaT-3" value="Satisfaction Dimension" style="swimlane;whiteSpace=wrap;html=1;fontFamily=Helvetica;fontSize=14;fontColor=#141414;" vertex="1" parent="1">
          <mxGeometry x="-125" y="-17.5" width="219" height="167" as="geometry" />
        </mxCell>
        <mxCell id="Sj8bDxC2IqZtrIGpPQaT-4" value="&lt;div style=&quot;border-color: var(--border-color); text-align: left;&quot;&gt;&lt;br&gt;&lt;/div&gt;&lt;div style=&quot;border-color: var(--border-color); text-align: left;&quot;&gt;Satisfaction Key (SK)&lt;/div&gt;&lt;div style=&quot;border-color: var(--border-color); text-align: left;&quot;&gt;&lt;span style=&quot;background-color: initial;&quot;&gt;Personnel Problem Indicator&lt;/span&gt;&lt;/div&gt;&lt;div style=&quot;border-color: var(--border-color); text-align: left;&quot;&gt;&lt;span style=&quot;background-color: initial;&quot;&gt;Middle Seat Indicator&lt;/span&gt;&lt;/div&gt;&lt;div style=&quot;border-color: var(--border-color); text-align: left;&quot;&gt;Lost Luggage Indicator&lt;/div&gt;&lt;div style=&quot;border-color: var(--border-color); text-align: left;&quot;&gt;&lt;span style=&quot;background-color: initial;&quot;&gt;Failed to Upgrade Indicator&lt;/span&gt;&lt;/div&gt;&lt;div style=&quot;border-color: var(--border-color); text-align: left;&quot;&gt;&lt;span style=&quot;background-color: initial;&quot;&gt;Delayed Arrival Indicator&lt;/span&gt;&lt;/div&gt;&lt;div style=&quot;border-color: var(--border-color); text-align: left;&quot;&gt;&lt;span style=&quot;background-color: initial;&quot;&gt;Airport Divert Indicator&lt;/span&gt;&lt;br&gt;&lt;/div&gt;" style="text;html=1;strokeColor=none;fillColor=none;align=center;verticalAlign=middle;whiteSpace=wrap;rounded=0;fontSize=14;fontFamily=Helvetica;fontColor=#141414;" vertex="1" parent="Sj8bDxC2IqZtrIGpPQaT-3">
          <mxGeometry x="2" y="8" width="196" height="151" as="geometry" />
        </mxCell>
      </root>
    </mxGraphModel>
  </diagram>
</mxfile>
